<svg width="30" height="30" viewBox="0 0 30 30" fill="none" xmlns="http://www.w3.org/2000/svg">
<path d="M14.884 15.4449C12.7272 15.3184 10.8057 14.9148 9.20286 13.4471C8.03757 12.3799 7.34693 10.9982 7.06307 9.38047C6.4421 5.84578 8.20967 2.77918 10.8652 1.27164C12.7149 0.221499 14.663 -0.184628 16.7335 0.167418C18.5004 0.467697 19.7928 1.5644 20.8394 3.07933C21.1938 3.5924 21.6097 4.07978 21.8564 4.65229C22.3655 5.83625 22.7984 7.05077 22.5047 8.43077C22.2297 9.72133 21.8893 10.9665 21.1234 12.0213C19.7786 13.8732 18.0795 15.0493 15.9017 15.3108C15.513 15.3572 15.1263 15.4128 14.884 15.4449ZM8.94965 8.63244C9.18317 10.5469 10.0449 11.918 11.6563 12.6263C12.3082 12.8889 12.9863 13.0657 13.6761 13.1527C15.9043 13.4993 17.8168 12.8633 19.2336 10.8422C19.8713 9.97383 20.1818 8.87038 20.1015 7.75851C18.2984 7.39083 16.6671 6.72596 15.3453 5.27843C13.6419 7.40773 11.3857 8.18635 8.94925 8.63244H8.94965Z" fill="black"/>
<path d="M18.6189 29.7641C15.9013 29.7641 13.1835 29.7487 10.4661 29.7685C8.12037 29.7857 5.77542 29.8597 3.42933 29.8711C2.77834 29.8758 2.12869 29.8054 1.49114 29.6608C0.299269 29.3855 -0.0851399 28.6457 0.214732 27.3447C0.452826 26.3121 0.939301 25.405 1.45184 24.5181C3.53354 20.9109 6.51334 18.5498 10.1009 17.0368C12.0481 16.1979 14.1175 15.7528 16.2092 15.7228C19.239 15.698 22.0527 16.5042 24.4691 18.6561C26.188 20.1658 27.5975 22.056 28.6059 24.2039C28.9036 24.8406 29.2223 25.4702 29.4631 26.1328C29.6764 26.7041 29.829 27.3005 29.918 27.9101C30.0461 28.8589 29.5783 29.4923 28.7194 29.6063C28.1167 29.6924 27.5101 29.7402 26.9024 29.7497C24.1412 29.7646 21.3801 29.7563 18.6189 29.7563V29.7641ZM27.7686 27.5035C27.7785 27.3779 27.7973 27.3256 27.7838 27.2862C26.8972 24.703 25.6401 22.3863 23.7046 20.5756C22.5695 19.5139 21.3169 18.666 19.8544 18.2483C17.9081 17.7112 15.8803 17.6317 13.904 18.015C9.00409 18.9031 5.08974 21.5199 2.4177 26.199C2.13347 26.6968 1.90708 27.2347 1.63873 27.7845C2.53034 28.0685 3.34212 27.9553 4.16662 27.9005C5.76945 27.794 7.37775 27.7553 8.9844 27.7457C14.028 27.7157 19.072 27.7192 24.1157 27.6928C25.244 27.687 26.3722 27.613 27.5002 27.5665C27.5911 27.5534 27.6808 27.5322 27.7686 27.5031V27.5035Z" fill="black"/>
<rect x="0.5" y="0.5" width="29" height="29" stroke="black" stroke-opacity="0.6"/>
</svg>
