<svg width="20" height="23" viewBox="0 0 20 23" fill="none" xmlns="http://www.w3.org/2000/svg">
<path d="M10 3.2973C11.45 3.2973 12.625 4.56757 12.625 6.13514C12.625 7.70271 11.45 8.97298 10 8.97298C8.55 8.97298 7.375 7.70271 7.375 6.13514C7.375 4.56757 8.55 3.2973 10 3.2973ZM10 15.4595C13.7125 15.4595 17.625 17.4324 17.625 18.2973C17.625 19.1183 16.9595 19.7838 16.1385 19.7838H3.86149C3.04052 19.7838 2.375 19.1183 2.375 18.2973C2.375 17.4324 6.2875 15.4595 10 15.4595ZM10 0.729736C7.2375 0.729736 5 3.14866 5 6.13514C5 9.12163 7.2375 11.5405 10 11.5405C12.7625 11.5405 15 9.12163 15 6.13514C15 3.14866 12.7625 0.729736 10 0.729736ZM10 12.8919C6.6625 12.8919 0 14.7027 0 18.2973V19.3514C0 21.0082 1.34315 22.3514 3 22.3514H17C18.6569 22.3514 20 21.0082 20 19.3514V18.2973C20 14.7027 13.3375 12.8919 10 12.8919Z" fill="#591035"/>
</svg>
