<?xml version="1.0" standalone="no"?>
<!DOCTYPE svg PUBLIC "-//W3C//DTD SVG 20010904//EN"
 "http://www.w3.org/TR/2001/REC-SVG-20010904/DTD/svg10.dtd">
<svg version="1.0" xmlns="http://www.w3.org/2000/svg"
 width="1169.000000pt" height="1280.000000pt" viewBox="0 0 1169.000000 1280.000000"
 preserveAspectRatio="xMidYMid meet">
<metadata>
Created by potrace 1.15, written by Peter Selinger 2001-2017
</metadata>
<g transform="translate(0.000000,1280.000000) scale(0.100000,-0.100000)"
fill="#000000" stroke="none">
<path d="M7081 12785 c-223 -63 -422 -302 -586 -703 -436 -1073 -396 -2912 84
-3855 113 -223 267 -405 398 -475 198 -104 392 -64 576 120 324 325 558 1063
618 1950 15 234 7 850 -15 1048 -33 295 -71 520 -127 745 -154 618 -407 1043
-689 1155 -72 29 -187 35 -259 15z"/>
<path d="M3570 11975 c-72 -23 -165 -85 -241 -160 -323 -320 -549 -1021 -620
-1925 -15 -189 -15 -703 0 -900 84 -1108 422 -1932 855 -2082 71 -24 181 -23
258 3 369 124 677 758 807 1664 42 290 55 493 55 865 0 372 -13 575 -55 865
-122 851 -403 1467 -745 1637 -80 39 -93 42 -177 45 -60 2 -108 -2 -137 -12z"/>
<path d="M9653 10113 c-483 -853 -599 -1324 -399 -1623 16 -25 93 -110 171
-190 502 -517 749 -926 859 -1420 86 -389 117 -979 76 -1450 -91 -1041 -540
-2019 -1269 -2764 -787 -804 -1778 -1272 -2897 -1367 -184 -15 -713 -6 -884
15 -1219 153 -2268 736 -3025 1679 -512 638 -841 1401 -954 2217 -43 312 -44
377 -39 2387 3 1052 3 1913 2 1913 -2 0 -55 -69 -117 -152 -1341 -1790 -1552
-4157 -546 -6148 617 -1223 1643 -2188 2904 -2733 767 -331 1610 -494 2445
-474 889 22 1715 230 2510 632 1691 856 2867 2495 3139 4375 45 306 55 462 55
830 1 347 -5 445 -40 730 -150 1214 -682 2349 -1531 3265 -113 122 -372 375
-392 383 -4 1 -34 -46 -68 -105z"/>
</g>
</svg>
