<svg width="24" height="24" viewBox="0 0 24 24" fill="none" xmlns="http://www.w3.org/2000/svg">
<path d="M10 4C4.48 4 0 8.48 0 14C0 19.52 4.48 24 10 24H15V22H10C5.66 22 2 18.34 2 14C2 9.66 5.66 6 10 6C14.34 6 18 9.66 18 14V15.43C18 16.22 17.29 17 16.5 17C15.71 17 15 16.22 15 15.43V14C15 11.24 12.76 9 10 9C7.24 9 5 11.24 5 14C5 16.76 7.24 19 10 19C11.38 19 12.64 18.44 13.54 17.53C14.19 18.42 15.31 19 16.5 19C18.47 19 20 17.4 20 15.43V14C20 8.48 15.52 4 10 4ZM10 17C8.34 17 7 15.66 7 14C7 12.34 8.34 11 10 11C11.66 11 13 12.34 13 14C13 15.66 11.66 17 10 17Z" fill="#323232"/>
</svg>
