<svg width="23" height="24" viewBox="0 0 23 24" fill="none" xmlns="http://www.w3.org/2000/svg">
<path d="M15.4929 6V17.5C15.4929 19.71 13.8122 21.5 11.737 21.5C9.66194 21.5 7.9812 19.71 7.9812 17.5V5C7.9812 3.62 9.03284 2.5 10.3286 2.5C11.6244 2.5 12.676 3.62 12.676 5V15.5C12.676 16.05 12.2535 16.5 11.737 16.5C11.2206 16.5 10.7981 16.05 10.7981 15.5V6H9.38964V15.5C9.38964 16.88 10.4413 18 11.737 18C13.0328 18 14.0845 16.88 14.0845 15.5V5C14.0845 2.79 12.4037 1 10.3286 1C8.2535 1 6.57275 2.79 6.57275 5V17.5C6.57275 20.54 8.8826 23 11.737 23C14.5915 23 16.9013 20.54 16.9013 17.5V6H15.4929Z" fill="#323232"/>
</svg>
