<svg width="40" height="41" viewBox="0 0 40 41" fill="none" xmlns="http://www.w3.org/2000/svg">
<g clip-path="url(#clip0)">
<path d="M19.8453 21.2101C16.9695 21.0416 14.4075 20.5033 12.2704 18.5464C10.7167 17.1235 9.79582 15.2813 9.41735 13.1243C8.58938 8.41134 10.9461 4.32254 14.4868 2.31249C16.9531 0.912306 19.5505 0.370803 22.3112 0.840198C24.6671 1.24057 26.3904 2.70284 27.7858 4.72275C28.2583 5.40684 28.8129 6.05668 29.1417 6.82003C29.8205 8.39864 30.3978 10.018 30.0061 11.858C29.6395 13.5787 29.1856 15.239 28.1644 16.6453C26.3714 19.1145 24.106 20.6827 21.2022 21.0313C20.6839 21.0933 20.1683 21.1673 19.8453 21.2101ZM11.9328 12.1269C12.2441 14.6795 13.3931 16.5077 15.5416 17.452C16.4108 17.8022 17.3149 18.0379 18.2348 18.1539C21.2056 18.616 23.7556 17.768 25.6448 15.0733C26.4949 13.9154 26.909 12.4441 26.8019 10.9616C24.3978 10.4714 22.2227 9.58492 20.4604 7.65488C18.1892 10.4939 15.1809 11.5321 11.9322 12.1269H11.9328Z" fill="black"/>
<path d="M24.8252 40.3024C21.2016 40.3024 17.5779 40.282 13.9547 40.3084C10.8271 40.3313 7.70047 40.4299 4.57236 40.4451C3.70437 40.4515 2.83817 40.3575 1.9881 40.1648C0.398944 39.7977 -0.113601 38.8113 0.286229 37.0766C0.603686 35.6998 1.25232 34.4903 1.93571 33.3078C4.7113 28.4982 8.68437 25.3501 13.4678 23.3328C16.0641 22.2142 18.8233 21.6208 21.6121 21.5808C25.652 21.5476 29.4035 22.6226 32.6253 25.4918C34.9172 27.5047 36.7965 30.025 38.1411 32.8888C38.5381 33.7378 38.963 34.5772 39.284 35.4608C39.5684 36.2224 39.772 37.0176 39.8906 37.8304C40.0615 39.0955 39.4377 39.94 38.2925 40.092C37.4889 40.2068 36.6801 40.2706 35.8698 40.2833C32.1882 40.3032 28.5067 40.292 24.8252 40.292V40.3024ZM37.0247 37.2883C37.0379 37.1208 37.063 37.0511 37.045 36.9986C35.8628 33.5543 34.1867 30.4654 31.606 28.0511C30.0926 26.6355 28.4225 25.505 26.4725 24.948C23.8774 24.2319 21.1736 24.1259 18.5386 24.6369C12.0054 25.8211 6.78624 29.3102 3.22352 35.5489C2.84454 36.2128 2.54269 36.93 2.1849 37.663C3.37371 38.0416 4.45608 37.8907 5.55541 37.8176C7.69253 37.6756 9.83692 37.6241 11.9791 37.6113C18.704 37.5713 25.4292 37.5759 32.1542 37.5408C33.6586 37.5329 35.1628 37.4343 36.6669 37.3724C36.7881 37.3549 36.9077 37.3266 37.0247 37.2877V37.2883Z" fill="black"/>
</g>
<rect x="0.5" y="1.11697" width="39" height="39" stroke="#090909" stroke-opacity="0.6"/>
<defs>
<clipPath id="clip0">
<rect y="0.616974" width="40" height="40" fill="white"/>
</clipPath>
</defs>
</svg>
