<svg width="142" height="131" viewBox="0 0 142 131" fill="none" xmlns="http://www.w3.org/2000/svg">
<g clip-path="url(#clip0)">
<path d="M70.4546 67.4276C60.3175 66.8798 51.2865 65.1305 43.7531 58.7706C38.2763 54.1462 35.0303 48.1589 33.6961 41.1486C30.7776 25.8316 39.0851 12.543 51.566 6.01033C60.2596 1.45972 69.4156 -0.300163 79.147 1.22537C87.4517 2.52658 93.526 7.27896 98.4449 13.8437C100.111 16.067 102.065 18.1789 103.225 20.6598C105.617 25.7903 107.652 31.0532 106.272 37.0332C104.979 42.6257 103.379 48.0215 99.7796 52.5921C93.4591 60.617 85.4735 65.7134 75.2378 66.8465C73.4108 67.0479 71.5934 67.2885 70.4546 67.4276ZM42.5631 37.9071C43.6606 46.203 47.7108 52.1446 55.2841 55.2138C58.3482 56.352 61.5352 57.1179 64.7776 57.4948C75.2498 58.9968 84.2385 56.2407 90.8978 47.4829C93.8947 43.7198 95.3542 38.9382 94.9766 34.1201C86.5023 32.5268 78.8351 29.6457 72.6228 23.3731C64.6168 32.6001 54.0126 35.9741 42.5612 37.9071H42.5631Z" fill="black"/>
<path d="M88.009 129.478C75.236 129.478 62.4623 129.411 49.6907 129.497C38.6658 129.571 27.6445 129.892 16.6179 129.941C13.5582 129.962 10.5048 129.657 7.50835 129.03C1.90658 127.837 0.0998544 124.631 1.50925 118.994C2.62829 114.519 4.91473 110.588 7.32368 106.745C17.1076 91.1138 31.1127 80.8825 47.9742 74.3263C57.1261 70.6911 66.8525 68.7623 76.683 68.6323C90.9234 68.5247 104.148 72.0183 115.505 81.3433C123.583 87.885 130.208 96.0762 134.948 105.384C136.347 108.143 137.845 110.871 138.976 113.742C139.979 116.218 140.696 118.802 141.115 121.444C141.717 125.555 139.518 128.3 135.481 128.794C132.649 129.167 129.798 129.374 126.941 129.415C113.964 129.48 100.986 129.444 88.009 129.444V129.478ZM131.012 119.682C131.059 119.138 131.147 118.911 131.084 118.74C126.917 107.546 121.008 97.5074 111.912 89.6608C106.577 85.06 100.689 81.3862 93.8157 79.5759C84.6681 77.2486 75.1374 76.9039 65.8487 78.5649C42.8192 82.4135 24.4218 93.7531 11.8632 114.029C10.5273 116.186 9.46329 118.517 8.20206 120.9C12.3926 122.13 16.208 121.64 20.0831 121.402C27.6165 120.941 35.1754 120.773 42.7267 120.731C66.4318 120.601 90.1384 120.617 113.844 120.502C119.147 120.477 124.449 120.156 129.751 119.955C130.178 119.898 130.6 119.806 131.012 119.68V119.682Z" fill="black"/>
</g>
<rect x="1" y="1" width="140" height="129" stroke="black" stroke-opacity="0.6"/>
<defs>
<clipPath id="clip0">
<rect x="0.5" y="0.5" width="141" height="130" fill="white"/>
</clipPath>
</defs>
</svg>
