<svg width="40" height="40" viewBox="0 0 40 40" fill="none" xmlns="http://www.w3.org/2000/svg">
<path d="M19.8453 20.5931C16.9695 20.4246 14.4075 19.8863 12.2704 17.9294C10.7167 16.5066 9.79582 14.6643 9.41735 12.5073C8.58938 7.79437 10.9461 3.70557 14.4868 1.69552C16.9531 0.295332 19.5505 -0.246171 22.3112 0.223224C24.6671 0.623596 26.3904 2.08587 27.7858 4.10577C28.2583 4.78987 28.8129 5.43971 29.1417 6.20306C29.8205 7.78166 30.3978 9.40103 30.0061 11.241C29.6395 12.9618 29.1856 14.622 28.1644 16.0284C26.3714 18.4976 24.106 20.0657 21.2022 20.4143C20.6839 20.4763 20.1683 20.5504 19.8453 20.5931ZM11.9328 11.5099C12.2441 14.0625 13.3931 15.8907 15.5416 16.8351C16.4108 17.1853 17.3149 17.4209 18.2348 17.5369C21.2056 17.999 23.7556 17.151 25.6448 14.4563C26.4949 13.2984 26.909 11.8272 26.8019 10.3447C24.3978 9.85444 22.2227 8.96795 20.4604 7.0379C18.1892 9.87697 15.1809 10.9151 11.9322 11.5099H11.9328Z" fill="black"/>
<path d="M24.8253 39.6855C21.2017 39.6855 17.578 39.665 13.9548 39.6914C10.8272 39.7143 7.7006 39.8129 4.57248 39.8282C3.70449 39.8345 2.83829 39.7405 1.98822 39.5478C0.399066 39.1807 -0.113479 38.1943 0.286351 36.4596C0.603808 35.0828 1.25244 33.8734 1.93583 32.6909C4.71143 27.8812 8.68449 24.7331 13.4679 22.7158C16.0642 21.5973 18.8234 21.0038 21.6122 20.9638C25.6521 20.9307 29.4036 22.0056 32.6255 24.8749C34.9173 26.8877 36.7967 29.4081 38.1412 32.2719C38.5382 33.1208 38.9631 33.9602 39.2841 34.8438C39.5685 35.6055 39.7721 36.4006 39.8907 37.2135C40.0616 38.4786 39.4378 39.323 38.2926 39.475C37.489 39.5898 36.6802 39.6536 35.8699 39.6663C32.1884 39.6862 28.5068 39.675 24.8253 39.675V39.6855ZM37.0248 36.6713C37.038 36.5039 37.0631 36.4341 37.0451 36.3816C35.8629 32.9374 34.1868 29.8484 31.6061 27.4341C30.0928 26.0185 28.4226 24.8881 26.4726 24.331C23.8775 23.6149 21.1738 23.5089 18.5387 24.02C12.0055 25.2042 6.78636 28.6933 3.22365 34.932C2.84466 35.5958 2.54282 36.313 2.18502 37.046C3.37383 37.4246 4.45621 37.2737 5.55553 37.2006C7.69265 37.0587 9.83704 37.0071 11.9792 36.9943C18.7041 36.9543 25.4294 36.9589 32.1543 36.9238C33.6587 36.916 35.1629 36.8174 36.667 36.7554C36.7882 36.7379 36.9078 36.7096 37.0248 36.6708V36.6713Z" fill="black"/>
<rect x="0.5" y="0.5" width="39" height="39" stroke="black" stroke-opacity="0.6"/>
</svg>
