<svg width="21" height="21" viewBox="0 0 21 21" fill="none" xmlns="http://www.w3.org/2000/svg">
<path fill-rule="evenodd" clip-rule="evenodd" d="M19.8847 10.7615C19.8847 10.0426 19.8202 9.35126 19.7003 8.68762H10.1513V12.6095H15.6079C15.3729 13.8769 14.6585 14.9507 13.5847 15.6697V18.2136H16.8614C18.7786 16.4485 19.8847 13.8493 19.8847 10.7615Z" fill="#4285F4"/>
<path fill-rule="evenodd" clip-rule="evenodd" d="M10.1513 20.6699C12.8889 20.6699 15.184 19.762 16.8615 18.2136L13.5848 15.6696C12.6769 16.2779 11.5155 16.6374 10.1513 16.6374C7.51061 16.6374 5.27544 14.8539 4.47815 12.4574H1.09082V15.0843C2.75914 18.3979 6.18794 20.6699 10.1513 20.6699Z" fill="#34A853"/>
<path fill-rule="evenodd" clip-rule="evenodd" d="M4.47807 12.4575C4.27529 11.8492 4.16008 11.1993 4.16008 10.5311C4.16008 9.86284 4.27529 9.21303 4.47807 8.60469V5.97778H1.09074C0.404061 7.34654 0.0123291 8.89503 0.0123291 10.5311C0.0123291 12.1671 0.404061 13.7156 1.09074 15.0844L4.47807 12.4575Z" fill="#FBBC05"/>
<path fill-rule="evenodd" clip-rule="evenodd" d="M10.1513 4.42462C11.6399 4.42462 12.9764 4.93618 14.0272 5.94086L16.9352 3.03282C15.1793 1.39677 12.8843 0.39209 10.1513 0.39209C6.18794 0.39209 2.75914 2.66413 1.09082 5.97772L4.47815 8.60463C5.27544 6.20816 7.51061 4.42462 10.1513 4.42462Z" fill="#EA4335"/>
</svg>
