<svg width="370" height="800" viewBox="0 0 370 800" fill="none" xmlns="http://www.w3.org/2000/svg">
<g clip-path="url(#clip0)">
<rect width="370" height="800" fill="black" fill-opacity="0.2"/>
<path d="M370 800H-876V-2.96831e-05H370V800Z" fill="#F2F2F2"/>
<path d="M135.389 213.366L142.258 219.982" stroke="white" stroke-width="1.53779" stroke-miterlimit="10" stroke-linecap="round" stroke-linejoin="round"/>
<path d="M111.809 190.658L124.436 202.819" stroke="white" stroke-width="1.53779" stroke-miterlimit="10" stroke-linecap="round" stroke-linejoin="round"/>
<path d="M133.205 192.127L180.752 237.918" stroke="white" stroke-width="1.53779" stroke-miterlimit="10" stroke-linecap="round" stroke-linejoin="round"/>
<path d="M108.959 168.776L118.601 178.062" stroke="white" stroke-width="1.53779" stroke-miterlimit="10" stroke-linecap="round" stroke-linejoin="round"/>
<path d="M167.378 205.899L209.215 246.192" stroke="white" stroke-width="1.53779" stroke-miterlimit="10" stroke-linecap="round" stroke-linejoin="round"/>
<path d="M104.253 145.106L148.861 188.066" stroke="white" stroke-width="1.53779" stroke-miterlimit="10" stroke-linecap="round" stroke-linejoin="round"/>
<path d="M139.225 159.65L213.07 230.768" stroke="white" stroke-width="1.53779" stroke-miterlimit="10" stroke-linecap="round" stroke-linejoin="round"/>
<path d="M108.693 130.243L124.323 145.296" stroke="white" stroke-width="1.53779" stroke-miterlimit="10" stroke-linecap="round" stroke-linejoin="round"/>
<path d="M200.196 199.23L217.945 216.323" stroke="white" stroke-width="1.53779" stroke-miterlimit="10" stroke-linecap="round" stroke-linejoin="round"/>
<path d="M91.0035 94.069L181.53 181.253" stroke="white" stroke-width="1.53779" stroke-miterlimit="10" stroke-linecap="round" stroke-linejoin="round"/>
<path d="M163.615 144.861L252.049 230.032" stroke="white" stroke-width="1.53779" stroke-miterlimit="10" stroke-linecap="round" stroke-linejoin="round"/>
<path d="M124.552 107.243L145.096 127.029" stroke="white" stroke-width="1.53779" stroke-miterlimit="10" stroke-linecap="round" stroke-linejoin="round"/>
<path d="M180.776 142.251L237.906 197.274" stroke="white" stroke-width="1.53779" stroke-miterlimit="10" stroke-linecap="round" stroke-linejoin="round"/>
<path d="M122.454 86.0832L164.668 126.738" stroke="white" stroke-width="1.53779" stroke-miterlimit="10" stroke-linecap="round" stroke-linejoin="round"/>
<path d="M227.896 168.495L257.736 197.232" stroke="white" stroke-width="1.53779" stroke-miterlimit="10" stroke-linecap="round" stroke-linejoin="round"/>
<path d="M148.252 91.789L206.219 147.616" stroke="white" stroke-width="1.53779" stroke-miterlimit="10" stroke-linecap="round" stroke-linejoin="round"/>
<path d="M198.991 121.518L239.302 160.341" stroke="white" stroke-width="1.53779" stroke-miterlimit="10" stroke-linecap="round" stroke-linejoin="round"/>
<path d="M153.035 77.2591L183.185 106.296" stroke="white" stroke-width="1.53779" stroke-miterlimit="10" stroke-linecap="round" stroke-linejoin="round"/>
<path d="M234.821 136.888L250.502 151.99" stroke="white" stroke-width="1.53779" stroke-miterlimit="10" stroke-linecap="round" stroke-linejoin="round"/>
<path d="M177.156 81.3521L216.905 119.634" stroke="white" stroke-width="1.53779" stroke-miterlimit="10" stroke-linecap="round" stroke-linejoin="round"/>
<path d="M226.672 109.902L236.304 119.179" stroke="white" stroke-width="1.53779" stroke-miterlimit="10" stroke-linecap="round" stroke-linejoin="round"/>
<path d="M209.754 93.6063L216.401 100.006" stroke="white" stroke-width="1.53779" stroke-miterlimit="10" stroke-linecap="round" stroke-linejoin="round"/>
<path d="M45.1529 213.957C54.7604 223.208 54.7604 238.21 45.1529 247.461C35.547 256.714 19.9702 256.714 10.3643 247.461C0.756808 238.21 0.756808 223.208 10.3643 213.957C19.9702 204.704 35.547 204.704 45.1529 213.957Z" stroke="white" stroke-width="2.66667" stroke-miterlimit="10"/>
<path d="M346.443 466.986C347.717 465.76 349.78 465.76 351.055 466.986C352.327 468.213 352.327 470.2 351.055 471.427C349.78 472.653 347.717 472.653 346.443 471.427C345.17 470.2 345.17 468.213 346.443 466.986Z" fill="white"/>
<path d="M310.325 432.202C311.598 430.974 313.661 430.974 314.935 432.202C316.208 433.427 316.208 435.416 314.935 436.642C313.661 437.867 311.598 437.867 310.325 436.642C309.051 435.416 309.051 433.427 310.325 432.202Z" fill="white"/>
<path d="M274.207 397.416C275.48 396.189 277.545 396.189 278.818 397.416C280.092 398.642 280.092 400.63 278.818 401.856C277.545 403.083 275.48 403.083 274.207 401.856C272.933 400.63 272.933 398.642 274.207 397.416Z" fill="white"/>
<path d="M238.088 362.63C239.361 361.405 241.426 361.405 242.699 362.63C243.973 363.858 243.973 365.845 242.699 367.07C241.426 368.298 239.361 368.298 238.088 367.07C236.816 365.845 236.816 363.858 238.088 362.63Z" fill="white"/>
<path d="M342.6 401.117C343.874 399.89 345.938 399.89 347.212 401.117C348.485 402.342 348.485 404.331 347.212 405.557C345.938 406.784 343.874 406.784 342.6 405.557C341.328 404.331 341.328 402.342 342.6 401.117Z" fill="white"/>
<path d="M306.481 366.331C307.754 365.106 309.819 365.106 311.091 366.331C312.366 367.557 312.366 369.546 311.091 370.771C309.819 371.998 307.754 371.998 306.481 370.771C305.207 369.546 305.207 367.557 306.481 366.331Z" fill="white"/>
<path d="M270.365 331.546C271.638 330.32 273.703 330.32 274.976 331.546C276.25 332.771 276.25 334.76 274.976 335.987C273.703 337.213 271.638 337.213 270.365 335.987C269.091 334.76 269.091 332.771 270.365 331.546Z" fill="white"/>
<path d="M338.759 335.246C340.032 334.019 342.097 334.019 343.369 335.246C344.642 336.472 344.642 338.461 343.369 339.686C342.097 340.913 340.032 340.913 338.759 339.686C337.485 338.461 337.485 336.472 338.759 335.246Z" fill="white"/>
<path d="M302.639 300.461C303.912 299.235 305.977 299.235 307.249 300.461C308.524 301.688 308.524 303.675 307.249 304.902C305.977 306.128 303.912 306.128 302.639 304.902C301.365 303.675 301.365 301.688 302.639 300.461Z" fill="white"/>
<path d="M371.035 304.162C372.308 302.936 374.373 302.936 375.645 304.162C376.918 305.387 376.918 307.376 375.645 308.602C374.373 309.829 372.308 309.829 371.035 308.602C369.761 307.376 369.761 305.387 371.035 304.162Z" fill="white"/>
<path d="M334.917 269.376C336.19 268.15 338.255 268.15 339.527 269.376C340.802 270.603 340.802 272.59 339.527 273.818C338.255 275.043 336.19 275.043 334.917 273.818C333.643 272.59 333.643 270.603 334.917 269.376Z" fill="white"/>
<path d="M367.193 238.291C368.465 237.066 370.53 237.066 371.803 238.291C373.076 239.518 373.076 241.506 371.803 242.733C370.53 243.958 368.465 243.958 367.193 242.733C365.918 241.506 365.918 239.518 367.193 238.291Z" fill="white"/>
<path d="M79.2099 74.9936C96.5244 91.512 96.531 118.298 79.2166 134.816L16.5028 74.9857C33.8189 58.4673 61.8938 58.4736 79.2099 74.9936" fill="#FFAF00"/>
<path d="M45.2641 162.606C27.9496 146.088 27.943 119.302 45.2574 102.784L107.971 162.614C90.6551 179.133 62.5802 179.126 45.2641 162.606V162.606Z" stroke="black" stroke-width="3.35359" stroke-miterlimit="10"/>
<path d="M159.773 531.211C187.18 557.605 187.191 600.405 159.784 626.8L60.5198 531.198C87.9267 504.805 132.367 504.816 159.773 531.211Z" fill="#FFAF00"/>
<path d="M156.866 550.144C184.273 576.539 184.285 619.337 156.878 645.732L57.6132 550.133C85.0201 523.738 129.461 523.749 156.866 550.144V550.144Z" stroke="#010101" stroke-width="2.66667" stroke-miterlimit="10" stroke-linecap="round" stroke-linejoin="round"/>
<path d="M301.52 167.499L308.389 174.115" stroke="#010101" stroke-width="1.53779" stroke-miterlimit="10" stroke-linecap="round" stroke-linejoin="round"/>
<path d="M277.943 144.79L290.569 156.952" stroke="#010101" stroke-width="1.53779" stroke-miterlimit="10" stroke-linecap="round" stroke-linejoin="round"/>
<path d="M299.339 146.259L346.886 192.051" stroke="#010101" stroke-width="1.53779" stroke-miterlimit="10" stroke-linecap="round" stroke-linejoin="round"/>
<path d="M275.095 122.91L284.737 132.197" stroke="#010101" stroke-width="1.53779" stroke-miterlimit="10" stroke-linecap="round" stroke-linejoin="round"/>
<path d="M333.509 160.034L375.346 200.325" stroke="#FFAF00" stroke-width="1.53779" stroke-miterlimit="10" stroke-linecap="round" stroke-linejoin="round"/>
<path d="M270.384 99.2384L314.993 142.2" stroke="#FFAF00" stroke-width="1.53779" stroke-miterlimit="10" stroke-linecap="round" stroke-linejoin="round"/>
<path d="M305.359 113.783L379.204 184.902" stroke="#010101" stroke-width="1.53779" stroke-miterlimit="10" stroke-linecap="round" stroke-linejoin="round"/>
<path d="M274.824 84.3759L290.454 99.4287" stroke="#010101" stroke-width="1.53779" stroke-miterlimit="10" stroke-linecap="round" stroke-linejoin="round"/>
<path d="M366.329 153.363L384.079 170.458" stroke="#010101" stroke-width="1.53779" stroke-miterlimit="10" stroke-linecap="round" stroke-linejoin="round"/>
<path d="M257.137 48.2017L347.663 135.386" stroke="#010101" stroke-width="1.53779" stroke-miterlimit="10" stroke-linecap="round" stroke-linejoin="round"/>
<path d="M329.748 98.9938L418.183 184.165" stroke="#FFAF00" stroke-width="1.53779" stroke-miterlimit="10" stroke-linecap="round" stroke-linejoin="round"/>
<path d="M290.688 61.376L311.232 81.1615" stroke="#FFAF00" stroke-width="1.53779" stroke-miterlimit="10" stroke-linecap="round" stroke-linejoin="round"/>
<path d="M346.909 96.3856L404.038 151.406" stroke="#010101" stroke-width="1.53779" stroke-miterlimit="10" stroke-linecap="round" stroke-linejoin="round"/>
<path d="M288.587 40.2161L330.802 80.8721" stroke="#010101" stroke-width="1.53779" stroke-miterlimit="10" stroke-linecap="round" stroke-linejoin="round"/>
<path d="M314.383 45.9216L372.35 101.749" stroke="#FFAF00" stroke-width="1.53779" stroke-miterlimit="10" stroke-linecap="round" stroke-linejoin="round"/>
<path d="M365.125 75.6529L405.436 114.475" stroke="#010101" stroke-width="1.53779" stroke-miterlimit="10" stroke-linecap="round" stroke-linejoin="round"/>
<path d="M319.168 31.3937L349.318 60.429" stroke="#010101" stroke-width="1.53779" stroke-miterlimit="10" stroke-linecap="round" stroke-linejoin="round"/>
<path d="M343.29 35.4865L383.038 73.7681" stroke="#FFAF00" stroke-width="1.53779" stroke-miterlimit="10" stroke-linecap="round" stroke-linejoin="round"/>
<path d="M203.048 401.6L250.185 433.6L297.319 401.6L344.458 433.6L391.596 401.6L438.738 433.6L485.877 401.6L533.024 433.6L580.171 401.6" stroke="#010101" stroke-width="2.66667" stroke-miterlimit="10" stroke-linecap="round" stroke-linejoin="round"/>
<path d="M203.048 372.8L250.185 404.8L297.319 372.8L344.458 404.8L391.596 372.8L438.738 404.8L485.877 372.8L533.024 404.8L580.171 372.8" stroke="#FFAF00" stroke-width="2.66667" stroke-miterlimit="10" stroke-linecap="round" stroke-linejoin="round"/>
<path d="M15.5262 390.274L-41.5523 445.245C-42.4561 446.115 -43.9213 446.115 -44.8251 445.245L-101.902 390.274C-102.806 389.405 -102.806 387.992 -101.902 387.123L-44.8251 332.152C-43.9213 331.282 -42.4561 331.282 -41.5523 332.152L15.5262 387.123C16.4299 387.992 16.4299 389.405 15.5262 390.274Z" stroke="#FFAF00" stroke-width="3.16625" stroke-miterlimit="10"/>
<path d="M149.599 140.795L185.873 175.728" stroke="#010101" stroke-width="2.66667" stroke-miterlimit="10" stroke-linecap="round" stroke-linejoin="round"/>
<path d="M-305.621 679.981L4.51167 978.662" stroke="#FFAF00" stroke-width="2.66667" stroke-miterlimit="10" stroke-linecap="round" stroke-linejoin="round"/>
<path d="M237.635 721.581L547.768 1020.26" stroke="#FFAF00" stroke-width="2.66667" stroke-miterlimit="10" stroke-linecap="round" stroke-linejoin="round"/>
<path d="M266.434 513.048L576.565 811.729" stroke="#010101" stroke-width="2.66667" stroke-miterlimit="10" stroke-linecap="round" stroke-linejoin="round"/>
<path d="M317.103 528.248L627.234 826.929" stroke="#FFAF00" stroke-width="2.66667" stroke-miterlimit="10" stroke-linecap="round" stroke-linejoin="round"/>
<path d="M114.758 406.17L101.474 418.962L88.1901 406.17L77.7719 416.203L91.0559 428.995L77.7719 441.789L88.1901 451.822L101.474 439.03L114.758 451.822L125.176 441.789L111.892 428.995L125.176 416.203L114.758 406.17Z" fill="#010101"/>
<path d="M113.039 396.474L99.7547 409.266L86.4723 396.474L76.0541 406.507L89.3365 419.299L73.5621 430.493L83.9803 440.526L99.7547 429.333L113.039 442.126L123.457 432.093L110.173 419.299L123.457 406.507L113.039 396.474Z" stroke="#FFAF00" stroke-width="1.33333" stroke-miterlimit="10" stroke-linecap="round" stroke-linejoin="round"/>
<path d="M179.436 293.301L267.171 271.96L216.826 351.584L179.436 293.301Z" fill="#FFAF00"/>
<path d="M178.24 268.749L267.395 253.837L210.963 329.579L178.24 268.749Z" stroke="#010101" stroke-width="2.66667" stroke-miterlimit="10" stroke-linecap="round" stroke-linejoin="round"/>
<path d="M267.395 253.837C265.773 254.528 209.539 286.502 209.539 286.502L210.963 329.579L267.395 253.837Z" stroke="#010101" stroke-width="2.66667" stroke-miterlimit="10" stroke-linecap="round" stroke-linejoin="round"/>
<path d="M178.24 268.749L209.539 286.502L267.395 253.837L178.24 268.749Z" stroke="#010101" stroke-width="2.66667" stroke-miterlimit="10" stroke-linecap="round" stroke-linejoin="round"/>
<path d="M110.709 764.402C106.626 764.402 102.54 762.9 99.4221 759.899C93.1871 753.896 93.1871 744.162 99.4204 738.157C107.926 729.963 107.928 716.634 99.4204 708.441C90.9144 700.246 77.0755 700.246 68.5695 708.441C62.3345 714.443 52.2286 714.443 45.9919 708.441C39.7586 702.437 39.7586 692.702 45.9919 686.697C66.948 666.518 101.042 666.518 121.998 686.697C142.951 706.878 142.951 739.715 121.998 759.897C118.88 762.9 114.794 764.402 110.709 764.402" fill="#FFAF00"/>
<path d="M120.287 755.177C116.204 755.177 112.118 753.675 109.002 750.675C102.765 744.672 102.765 734.936 108.998 728.932C117.505 720.739 117.506 707.408 108.998 699.217C100.494 691.021 86.6535 691.021 78.1491 699.217C71.9125 705.219 61.8067 705.219 55.57 699.217C49.3367 693.211 49.3367 683.478 55.57 677.474C76.5277 657.294 110.62 657.294 131.576 677.474C152.529 697.654 152.529 730.489 131.576 750.674C128.459 753.675 124.372 755.177 120.287 755.177V755.177Z" stroke="#010101" stroke-width="3.41651" stroke-miterlimit="10"/>
<path d="M226.036 37.1328C224.416 36.4656 223.659 34.6528 224.351 33.0928C225.051 31.5232 226.926 30.8032 228.556 31.4752C230.176 32.1424 230.934 33.9567 230.239 35.5167C230.179 35.6367 230.124 35.7487 230.06 35.8543C229.262 37.1791 227.534 37.7568 226.036 37.1328Z" fill="#FFAF00"/>
<path d="M215.815 53.9729C214.441 55.0465 212.427 54.8464 211.314 53.5248C210.195 52.2096 210.401 50.2705 211.766 49.1921C213.14 48.1201 215.152 48.3185 216.274 49.6321C217.134 50.6593 217.206 52.0545 216.558 53.1297C216.372 53.4401 216.122 53.7297 215.815 53.9729Z" fill="#010101"/>
<path d="M231.181 16.0447C229.423 16.1791 227.88 14.9135 227.732 13.2143C227.594 11.5231 228.908 10.0367 230.666 9.90232C232.429 9.75832 233.972 11.0255 234.12 12.7231C234.168 13.3791 234.009 13.9919 233.693 14.5151C233.185 15.3599 232.267 15.9631 231.181 16.0447" fill="#010101"/>
<path d="M194.138 63.8401C192.4 64.1873 190.71 63.1009 190.355 61.4417C190.002 59.7729 191.122 58.1409 192.855 57.8033C194.586 57.4657 196.281 58.5425 196.631 60.2113C196.797 60.9809 196.648 61.7393 196.267 62.3713C195.824 63.1089 195.071 63.6609 194.138 63.8401" fill="#010101"/>
<path d="M170.172 62.9168C168.477 62.432 167.498 60.7216 168 59.0896C168.487 57.4624 170.265 56.52 171.962 56.9936C173.654 57.464 174.627 59.1824 174.14 60.8112C174.067 61.0544 173.961 61.2928 173.832 61.5056C173.115 62.696 171.609 63.3152 170.172 62.9168" fill="#FFAF00"/>
<path d="M153.933 51.2656C152.711 52.496 150.687 52.5391 149.41 51.3631C148.134 50.1871 148.094 48.2287 149.315 47C150.536 45.7696 152.565 45.7391 153.84 46.9167C154.929 47.9151 155.118 49.4831 154.397 50.6815C154.267 50.8943 154.116 51.0832 153.933 51.2656" fill="#010101"/>
<path d="M140.646 33.7825C138.968 34.3169 137.159 33.4497 136.604 31.8321C136.034 30.2193 136.949 28.4753 138.619 27.9361C140.298 27.4017 142.104 28.2689 142.674 29.8817C142.972 30.7601 142.847 31.6641 142.397 32.4097C142.023 33.0321 141.412 33.5345 140.646 33.7825Z" fill="#010101"/>
<path d="M137.292 12.3504C135.546 12.0768 134.363 10.4993 134.649 8.81926C134.933 7.13766 136.569 5.99842 138.32 6.26402C140.066 6.53922 141.244 8.12327 140.965 9.79527C140.9 10.1873 140.764 10.5376 140.571 10.8576C139.928 11.9248 138.646 12.56 137.292 12.3504" fill="#010101"/>
<path d="M218.414 33.3857C217.088 32.8465 216.467 31.3601 217.042 30.0769C217.611 28.8049 219.155 28.2065 220.477 28.7553C221.808 29.3089 222.42 30.7904 221.85 32.064C221.815 32.1632 221.762 32.2512 221.709 32.3408C221.056 33.424 219.648 33.8977 218.414 33.3857" fill="#010101"/>
<path d="M210.052 47.1664C208.931 48.0464 207.277 47.8833 206.377 46.7985C205.457 45.7265 205.626 44.136 206.749 43.2544C207.872 42.3744 209.525 42.5376 210.429 43.6128C211.14 44.4608 211.195 45.5969 210.665 46.4753C210.51 46.7329 210.309 46.9648 210.052 47.1664Z" fill="#010101"/>
<path d="M222.632 16.1359C221.187 16.2431 219.924 15.2048 219.808 13.8224C219.698 12.4304 220.77 11.224 222.21 11.1024C223.647 10.992 224.918 12.0335 225.034 13.4175C225.071 13.9487 224.938 14.4559 224.68 14.8831C224.263 15.5759 223.516 16.0591 222.632 16.1359Z" fill="#010101"/>
<path d="M192.315 55.2448C190.899 55.5232 189.519 54.6448 189.234 53.2736C188.944 51.9136 189.857 50.5824 191.271 50.3024C192.683 50.024 194.066 50.9024 194.365 52.2704C194.491 52.8976 194.375 53.5216 194.064 54.0368C193.7 54.6416 193.084 55.0928 192.315 55.2448" fill="#010101"/>
<path d="M172.711 54.4801C171.318 54.0929 170.523 52.6881 170.93 51.3585C171.331 50.0161 172.781 49.2465 174.177 49.6337C175.556 50.0257 176.363 51.4257 175.953 52.7649C175.891 52.9681 175.808 53.1473 175.702 53.3249C175.112 54.3025 173.894 54.8081 172.711 54.4801" fill="#010101"/>
<path d="M159.426 44.9537C158.424 45.9617 156.763 45.9954 155.722 45.0226C155.722 45.0226 155.722 45.0225 155.717 45.0305C154.685 44.0625 154.645 42.4721 155.647 41.4641C156.649 40.4577 158.303 40.4321 159.355 41.3873C160.239 42.2129 160.395 43.4881 159.8 44.4737C159.699 44.6433 159.572 44.8113 159.426 44.9537" fill="#010101"/>
<path d="M148.55 30.648C147.183 31.0944 145.696 30.3712 145.247 29.0512C144.782 27.7344 145.519 26.3056 146.895 25.8624C148.272 25.4208 149.749 26.1392 150.215 27.456C150.459 28.176 150.354 28.9232 149.99 29.528C149.685 30.0336 149.181 30.4416 148.55 30.648" fill="#FFAF00"/>
<path d="M145.813 13.1104C144.389 12.896 143.422 11.5952 143.643 10.2224C143.881 8.84644 145.222 7.91044 146.651 8.13924C148.076 8.35204 149.043 9.65285 148.82 11.0256C148.767 11.3392 148.653 11.632 148.496 11.8896C147.966 12.7696 146.915 13.2864 145.813 13.1104" fill="#010101"/>
<path d="M211.907 30.1889C210.833 29.7425 210.332 28.5488 210.796 27.5136C211.258 26.4768 212.504 25.9856 213.589 26.4368C214.655 26.8784 215.159 28.0865 214.695 29.1233C214.662 29.1985 214.62 29.2704 214.577 29.3408C214.047 30.2208 212.904 30.6033 211.907 30.1889" fill="#010101"/>
<path d="M205.133 41.3537C204.221 42.0673 202.888 41.9282 202.156 41.0562C201.415 40.1778 201.544 38.8978 202.455 38.1826C203.367 37.469 204.701 37.6082 205.439 38.4722C206.015 39.1522 206.062 40.0786 205.633 40.789C205.505 41.0034 205.339 41.1953 205.133 41.3537Z" fill="#010101"/>
<path d="M215.325 16.2095C214.147 16.2991 213.135 15.4607 213.037 14.3375C212.946 13.2175 213.813 12.2287 214.981 12.1343C216.152 12.0511 217.178 12.8863 217.269 14.0063C217.302 14.4399 217.196 14.8431 216.982 15.1999C216.644 15.7583 216.044 16.1599 215.325 16.2095Z" fill="#010101"/>
<path d="M190.76 47.8927C189.614 48.1199 188.497 47.4127 188.263 46.3087C188.029 45.2031 188.768 44.1199 189.914 43.8943C191.062 43.6687 192.187 44.3791 192.421 45.4847C192.523 45.9919 192.428 46.4975 192.175 46.9151C191.881 47.4031 191.385 47.7791 190.76 47.8927" fill="#FFAF00"/>
<path d="M211.596 2.29935C210.606 2.89775 209.295 2.61614 208.668 1.64974C208.047 0.696138 208.35 -0.561471 209.338 -1.15987C210.328 -1.75827 211.639 -1.47664 212.26 -0.524637C212.696 0.145763 212.686 0.960129 212.3 1.60013C212.134 1.87533 211.895 2.10895 211.596 2.29935" fill="#010101"/>
<path d="M174.882 47.2737C173.75 46.9633 173.101 45.8289 173.435 44.7425C173.762 43.6673 174.94 43.0433 176.061 43.3505C177.188 43.6705 177.837 44.8049 177.503 45.8897C177.455 46.0513 177.389 46.2049 177.307 46.3377C176.826 47.1377 175.839 47.5473 174.882 47.2737" fill="#010101"/>
<path d="M164.117 39.5601C163.305 40.3777 161.961 40.3969 161.122 39.6193C160.274 38.8369 160.246 37.5521 161.05 36.7297C161.871 35.9185 163.207 35.8929 164.054 36.6753C164.777 37.3393 164.906 38.3744 164.424 39.1744C164.343 39.3072 164.238 39.4385 164.117 39.5601" fill="#FFAF00"/>
<path d="M155.31 27.9633C154.192 28.3249 152.996 27.7521 152.63 26.6801C152.255 25.6049 152.85 24.4529 153.968 24.0913C155.081 23.7393 156.275 24.3121 156.651 25.3889C156.848 25.9617 156.765 26.5697 156.471 27.0577C156.221 27.4753 155.822 27.8113 155.31 27.9633" fill="#010101"/>
<path d="M153.085 13.7666C151.926 13.5826 151.143 12.5266 151.329 11.4194C151.52 10.3042 152.607 9.5458 153.766 9.72979C154.916 9.90899 155.703 10.9538 155.521 12.0754C155.481 12.3266 155.389 12.5602 155.26 12.7746C154.833 13.485 153.979 13.8978 153.085 13.7666" fill="#010101"/>
<path d="M160.955 -0.219099C160.251 0.683301 158.92 0.865717 157.979 0.196917C157.044 -0.479883 156.853 -1.7615 157.557 -2.6623C158.25 -3.5695 159.583 -3.75187 160.528 -3.07027C161.4 -2.45107 161.623 -1.30546 161.088 -0.417458C161.045 -0.345458 161.006 -0.284699 160.955 -0.219099Z" fill="#010101"/>
<path d="M13.8646 793.75C11.8743 795.905 8.44687 796.099 6.20901 794.182C3.97115 792.265 3.7718 788.965 5.76212 786.809C7.75243 784.654 11.1798 784.461 13.4177 786.377C15.6556 788.294 15.8549 791.595 13.8646 793.75" fill="#FFAF00"/>
<path d="M9.3042 752.749C7.31393 754.904 3.8866 755.097 1.64879 753.181C-0.589017 751.264 -0.788366 747.963 1.2019 745.808C3.19051 743.652 6.6195 743.459 8.85731 745.376C11.0951 747.292 11.2945 750.594 9.3042 752.749" fill="#FFAF00"/>
<path d="M32.991 773.038C31.0023 775.194 27.5733 775.387 25.337 773.47C23.0975 771.554 22.8981 768.252 24.8884 766.097C26.8788 763.942 30.3062 763.749 32.5441 765.665C34.782 767.582 34.9814 770.883 32.991 773.038Z" fill="#010101"/>
<path d="M80.9274 313.6C80.9274 325.088 71.2584 334.4 59.3301 334.4C47.4017 334.4 37.7328 325.088 37.7328 313.6C37.7328 302.112 47.4017 292.8 59.3301 292.8C71.2584 292.8 80.9274 302.112 80.9274 313.6Z" stroke="#FFAF00" stroke-width="13.3333" stroke-miterlimit="10" stroke-linecap="round" stroke-linejoin="round"/>
<path d="M303.269 654.132C295.025 654.132 288.317 660.594 288.317 668.532C288.317 676.474 295.025 682.932 303.269 682.932C311.514 682.932 318.221 676.474 318.221 668.532C318.221 660.594 311.514 654.132 303.269 654.132ZM303.269 695.732C287.695 695.732 275.026 683.531 275.026 668.532C275.026 653.534 287.695 641.332 303.269 641.332C318.842 641.332 331.511 653.534 331.511 668.532C331.511 683.531 318.842 695.732 303.269 695.732Z" fill="#010101"/>
<path d="M272.534 624.533C264.291 624.533 257.582 630.993 257.582 638.933C257.582 646.874 264.291 653.332 272.534 653.332C280.779 653.332 287.486 646.874 287.486 638.933C287.486 630.993 280.779 624.533 272.534 624.533ZM272.534 666.132C256.961 666.132 244.292 653.931 244.292 638.933C244.292 623.934 256.961 611.733 272.534 611.733C288.108 611.733 300.777 623.934 300.777 638.933C300.777 653.931 288.108 666.132 272.534 666.132Z" stroke="#FFAF00" stroke-width="2.66667" stroke-miterlimit="10"/>
<path d="M254.537 195.2C254.537 202.416 248.463 208.267 240.969 208.267C233.476 208.267 227.402 202.416 227.402 195.2C227.402 187.984 233.476 182.133 240.969 182.133C248.463 182.133 254.537 187.984 254.537 195.2Z" stroke="#010101" stroke-width="5.33333" stroke-miterlimit="10" stroke-linecap="round" stroke-linejoin="round"/>
<path d="M243.311 469.349C252.339 477.963 252.344 491.93 243.314 500.544L210.613 469.346C219.642 460.731 234.282 460.736 243.311 469.349Z" fill="#FFAF00"/>
<path d="M184.159 483.949C175.131 475.335 175.126 461.368 184.155 452.754L216.857 483.952C207.828 492.565 193.188 492.562 184.159 483.949Z" stroke="#FFAF00" stroke-width="2.36088" stroke-miterlimit="10"/>
</g>
<defs>
<clipPath id="clip0">
<rect width="370" height="800" fill="white"/>
</clipPath>
</defs>
</svg>
