<svg width="123" height="122" viewBox="0 0 123 122" fill="none" xmlns="http://www.w3.org/2000/svg">
<path d="M61.0242 62.8089C52.1813 62.2948 44.3031 60.6532 37.7315 54.6846C32.9538 50.3448 30.1222 44.726 28.9584 38.1471C26.4124 23.7727 33.6594 11.3018 44.547 5.17119C52.1307 0.90062 60.1179 -0.750965 68.607 0.680691C75.8515 1.90183 81.1504 6.36175 85.4413 12.5225C86.8944 14.6089 88.5997 16.591 89.6108 18.9192C91.6982 23.7339 93.4733 28.673 92.2688 34.285C91.1415 39.5333 89.7458 44.5971 86.6056 48.8864C81.092 56.4174 74.1258 61.2002 65.1969 62.2636C63.6031 62.4526 62.0176 62.6784 61.0242 62.8089ZM36.6933 35.1051C37.6508 42.8904 41.1839 48.4664 47.7904 51.3468C50.4633 52.4149 53.2435 53.1337 56.0719 53.4874C65.2073 54.8969 73.0485 52.3105 78.8577 44.0916C81.472 40.5601 82.7452 36.0727 82.4158 31.5511C75.0233 30.0559 68.3349 27.3521 62.9156 21.4655C55.9317 30.1246 46.6812 33.291 36.6917 35.1051H36.6933Z" fill="black"/>
<path d="M76.3378 121.041C65.1953 121.041 54.0523 120.978 42.9111 121.059C33.2936 121.129 23.6793 121.429 14.0603 121.476C11.3913 121.495 8.72772 121.209 6.11376 120.621C1.2271 119.501 -0.348976 116.493 0.880501 111.202C1.85668 107.003 3.85123 103.314 5.95266 99.7071C14.4876 85.0376 26.7048 75.4359 41.4137 69.2831C49.3974 65.8717 57.882 64.0615 66.4576 63.9395C78.8801 63.8385 90.4161 67.1172 100.323 75.8683C107.371 82.0074 113.15 89.6946 117.284 98.4292C118.505 101.018 119.811 103.579 120.799 106.274C121.673 108.597 122.299 111.022 122.664 113.501C123.189 117.36 121.271 119.935 117.75 120.399C115.279 120.749 112.792 120.944 110.3 120.982C98.9791 121.043 87.6585 121.009 76.3378 121.009V121.041ZM113.851 111.847C113.892 111.337 113.969 111.124 113.914 110.964C110.278 100.459 105.124 91.0377 97.1889 83.674C92.5352 79.3563 87.3994 75.9086 81.4032 74.2096C73.4233 72.0256 65.1093 71.7021 57.0064 73.2609C36.9169 76.8726 20.868 87.5144 9.91269 106.542C8.74731 108.567 7.81913 110.755 6.71891 112.99C10.3745 114.145 13.7028 113.685 17.0832 113.462C23.6549 113.029 30.2489 112.872 36.8361 112.833C57.5151 112.711 78.1953 112.725 98.8744 112.617C103.5 112.594 108.126 112.293 112.751 112.104C113.124 112.051 113.492 111.964 113.851 111.846V111.847Z" fill="black"/>
<rect x="0.5" y="0.5" width="122" height="121" stroke="black" stroke-opacity="0.6"/>
</svg>
