<svg width="20" height="20" viewBox="0 0 20 20" fill="none" xmlns="http://www.w3.org/2000/svg">
<path d="M9.96169 2.375C11.4061 2.375 12.5766 3.55 12.5766 5C12.5766 6.45 11.4061 7.625 9.96169 7.625C8.51724 7.625 7.34674 6.45 7.34674 5C7.34674 3.55 8.51724 2.375 9.96169 2.375ZM9.96169 13.625C13.66 13.625 17.5575 15.45 17.5575 16.25C17.5575 17.0094 16.9419 17.625 16.1825 17.625H3.7409C2.98151 17.625 2.3659 17.0094 2.3659 16.25C2.3659 15.45 6.26341 13.625 9.96169 13.625ZM9.96169 0C7.20977 0 4.98084 2.2375 4.98084 5C4.98084 7.7625 7.20977 10 9.96169 10C12.7136 10 14.9425 7.7625 14.9425 5C14.9425 2.2375 12.7136 0 9.96169 0ZM9.96169 11.25C6.63697 11.25 0 12.925 0 16.25V17C0 18.6569 1.34315 20 3 20H16.9234C18.5802 20 19.9234 18.6569 19.9234 17V16.25C19.9234 12.925 13.2864 11.25 9.96169 11.25Z" fill="black"/>
</svg>
